<svg width="187" height="67" viewBox="0 0 187 67" fill="none" xmlns="http://www.w3.org/2000/svg">
<g id="Group 1">
<g id="Rectangle 1">
<g filter="url(#filter0_i_1_9)">
<rect x="3" width="180" height="60" fill="white"/>
</g>
<rect x="4" y="1" width="178" height="58" stroke="black" stroke-width="2"/>
</g>
<g id="EuroTour" filter="url(#filter1_d_1_9)">
<path d="M20.8864 42V18.7273H37.1136V23.2955H26.5114V28.0682H36.2841V32.6477H26.5114V37.4318H37.1136V42H20.8864ZM51.8977 34.4659V24.5455H57.4432V42H52.1477V38.75H51.9659C51.5795 39.8182 50.9205 40.6667 49.9886 41.2955C49.0644 41.9167 47.947 42.2273 46.6364 42.2273C45.447 42.2273 44.4015 41.9545 43.5 41.4091C42.5985 40.8636 41.8977 40.1023 41.3977 39.125C40.8977 38.1402 40.6439 36.9886 40.6364 35.6705V24.5455H46.1932V34.5795C46.2008 35.5265 46.4508 36.2727 46.9432 36.8182C47.4356 37.3636 48.1061 37.6364 48.9545 37.6364C49.5076 37.6364 50.0038 37.5152 50.4432 37.2727C50.8902 37.0227 51.2424 36.6629 51.5 36.1932C51.7652 35.7159 51.8977 35.1402 51.8977 34.4659ZM60.9801 42V24.5455H66.3778V27.7273H66.5597C66.8778 26.5758 67.3968 25.7197 68.1165 25.1591C68.8362 24.5909 69.6733 24.3068 70.6278 24.3068C70.8854 24.3068 71.1506 24.3258 71.4233 24.3636C71.696 24.3939 71.9498 24.4432 72.1847 24.5114V29.3409C71.9195 29.25 71.571 29.178 71.1392 29.125C70.715 29.072 70.3362 29.0455 70.0028 29.0455C69.3438 29.0455 68.7491 29.1932 68.2188 29.4886C67.696 29.7765 67.2831 30.1818 66.9801 30.7045C66.6847 31.2197 66.5369 31.8258 66.5369 32.5227V42H60.9801ZM81.6903 42.3295C79.857 42.3295 78.2813 41.9545 76.9631 41.2045C75.6525 40.447 74.6411 39.3939 73.929 38.0455C73.2244 36.6894 72.8722 35.1174 72.8722 33.3295C72.8722 31.5341 73.2244 29.9621 73.929 28.6136C74.6411 27.2576 75.6525 26.2045 76.9631 25.4545C78.2813 24.697 79.857 24.3182 81.6903 24.3182C83.5237 24.3182 85.0956 24.697 86.4062 25.4545C87.7244 26.2045 88.7358 27.2576 89.4403 28.6136C90.1525 29.9621 90.5085 31.5341 90.5085 33.3295C90.5085 35.1174 90.1525 36.6894 89.4403 38.0455C88.7358 39.3939 87.7244 40.447 86.4062 41.2045C85.0956 41.9545 83.5237 42.3295 81.6903 42.3295ZM81.7244 38.1364C82.3911 38.1364 82.9555 37.9318 83.4176 37.5227C83.8797 37.1136 84.232 36.5455 84.4744 35.8182C84.7244 35.0909 84.8494 34.25 84.8494 33.2955C84.8494 32.3258 84.7244 31.4773 84.4744 30.75C84.232 30.0227 83.8797 29.4545 83.4176 29.0455C82.9555 28.6364 82.3911 28.4318 81.7244 28.4318C81.035 28.4318 80.4517 28.6364 79.9744 29.0455C79.5047 29.4545 79.1449 30.0227 78.8949 30.75C78.6525 31.4773 78.5312 32.3258 78.5312 33.2955C78.5312 34.25 78.6525 35.0909 78.8949 35.8182C79.1449 36.5455 79.5047 37.1136 79.9744 37.5227C80.4517 37.9318 81.035 38.1364 81.7244 38.1364Z" fill="black"/>
<path d="M92.5938 23.2955V18.7273H112.264V23.2955H105.207V42H99.6619V23.2955H92.5938Z" fill="#FF0000"/>
<path d="M123.159 42.3295C121.326 42.3295 119.75 41.9545 118.432 41.2045C117.121 40.447 116.11 39.3939 115.398 38.0455C114.693 36.6894 114.341 35.1174 114.341 33.3295C114.341 31.5341 114.693 29.9621 115.398 28.6136C116.11 27.2576 117.121 26.2045 118.432 25.4545C119.75 24.697 121.326 24.3182 123.159 24.3182C124.992 24.3182 126.564 24.697 127.875 25.4545C129.193 26.2045 130.205 27.2576 130.909 28.6136C131.621 29.9621 131.977 31.5341 131.977 33.3295C131.977 35.1174 131.621 36.6894 130.909 38.0455C130.205 39.3939 129.193 40.447 127.875 41.2045C126.564 41.9545 124.992 42.3295 123.159 42.3295ZM123.193 38.1364C123.86 38.1364 124.424 37.9318 124.886 37.5227C125.348 37.1136 125.701 36.5455 125.943 35.8182C126.193 35.0909 126.318 34.25 126.318 33.2955C126.318 32.3258 126.193 31.4773 125.943 30.75C125.701 30.0227 125.348 29.4545 124.886 29.0455C124.424 28.6364 123.86 28.4318 123.193 28.4318C122.504 28.4318 121.92 28.6364 121.443 29.0455C120.973 29.4545 120.614 30.0227 120.364 30.75C120.121 31.4773 120 32.3258 120 33.2955C120 34.25 120.121 35.0909 120.364 35.8182C120.614 36.5455 120.973 37.1136 121.443 37.5227C121.92 37.9318 122.504 38.1364 123.193 38.1364Z" fill="#0711FF"/>
<path d="M146.085 34.4659V24.5455H151.631V42H146.335V38.75H146.153C145.767 39.8182 145.108 40.6667 144.176 41.2955C143.252 41.9167 142.134 42.2273 140.824 42.2273C139.634 42.2273 138.589 41.9545 137.688 41.4091C136.786 40.8636 136.085 40.1023 135.585 39.125C135.085 38.1402 134.831 36.9886 134.824 35.6705V24.5455H140.381V34.5795C140.388 35.5265 140.638 36.2727 141.131 36.8182C141.623 37.3636 142.294 37.6364 143.142 37.6364C143.695 37.6364 144.191 37.5152 144.631 37.2727C145.078 37.0227 145.43 36.6629 145.688 36.1932C145.953 35.7159 146.085 35.1402 146.085 34.4659Z" fill="#24FF00"/>
<path d="M155.168 42V24.5455H160.565V27.7273H160.747C161.065 26.5758 161.584 25.7197 162.304 25.1591C163.024 24.5909 163.861 24.3068 164.815 24.3068C165.073 24.3068 165.338 24.3258 165.611 24.3636C165.884 24.3939 166.137 24.4432 166.372 24.5114V29.3409C166.107 29.25 165.759 29.178 165.327 29.125C164.902 29.072 164.524 29.0455 164.19 29.0455C163.531 29.0455 162.937 29.1932 162.406 29.4886C161.884 29.7765 161.471 30.1818 161.168 30.7045C160.872 31.2197 160.724 31.8258 160.724 32.5227V42H155.168Z" fill="#EB00FF"/>
</g>
</g>
<defs>
<filter id="filter0_i_1_9" x="3" y="0" width="180" height="64" filterUnits="userSpaceOnUse" color-interpolation-filters="sRGB">
<feFlood flood-opacity="0" result="BackgroundImageFix"/>
<feBlend mode="normal" in="SourceGraphic" in2="BackgroundImageFix" result="shape"/>
<feColorMatrix in="SourceAlpha" type="matrix" values="0 0 0 0 0 0 0 0 0 0 0 0 0 0 0 0 0 0 127 0" result="hardAlpha"/>
<feOffset dy="4"/>
<feGaussianBlur stdDeviation="10"/>
<feComposite in2="hardAlpha" operator="arithmetic" k2="-1" k3="1"/>
<feColorMatrix type="matrix" values="0 0 0 0 0 0 0 0 0 0 0 0 0 0 0 0 0 0 0.25 0"/>
<feBlend mode="normal" in2="shape" result="effect1_innerShadow_1_9"/>
</filter>
<filter id="filter1_d_1_9" x="0.886353" y="2.72726" width="185.486" height="63.6023" filterUnits="userSpaceOnUse" color-interpolation-filters="sRGB">
<feFlood flood-opacity="0" result="BackgroundImageFix"/>
<feColorMatrix in="SourceAlpha" type="matrix" values="0 0 0 0 0 0 0 0 0 0 0 0 0 0 0 0 0 0 127 0" result="hardAlpha"/>
<feOffset dy="4"/>
<feGaussianBlur stdDeviation="10"/>
<feComposite in2="hardAlpha" operator="out"/>
<feColorMatrix type="matrix" values="0 0 0 0 0 0 0 0 0 0 0 0 0 0 0 0 0 0 0.25 0"/>
<feBlend mode="normal" in2="BackgroundImageFix" result="effect1_dropShadow_1_9"/>
<feBlend mode="normal" in="SourceGraphic" in2="effect1_dropShadow_1_9" result="shape"/>
</filter>
</defs>
</svg>
