<svg xmlns="http://www.w3.org/2000/svg" xmlns:xlink="http://www.w3.org/1999/xlink" width="500" zoomAndPan="magnify" viewBox="0 0 375 374.999991" height="500" preserveAspectRatio="xMidYMid meet" version="1.0"><path fill="#2197bd" d="M 375 317.980469 C 375 349.449219 349.488281 374.964844 318.015625 374.964844 L 56.996094 374.964844 C 25.523438 374.964844 0.015625 349.449219 0.015625 317.980469 L 0.015625 56.957031 C 0.015625 25.488281 25.523438 -0.0234375 56.996094 -0.0234375 L 318.015625 -0.0234375 C 349.488281 -0.0234375 375 25.488281 375 56.957031 Z M 375 317.980469 " fill-opacity="1" fill-rule="nonzero"/><path fill="#ffffff" d="M 148.292969 133.761719 C 148.292969 134.679688 148.246094 135.59375 148.15625 136.507812 C 148.066406 137.421875 147.933594 138.328125 147.753906 139.226562 C 147.574219 140.125 147.351562 141.015625 147.085938 141.894531 C 146.820312 142.769531 146.511719 143.632812 146.160156 144.480469 C 145.808594 145.328125 145.417969 146.15625 144.984375 146.96875 C 144.550781 147.777344 144.082031 148.5625 143.570312 149.324219 C 143.0625 150.085938 142.515625 150.824219 141.933594 151.53125 C 141.351562 152.242188 140.734375 152.921875 140.085938 153.570312 C 139.4375 154.21875 138.757812 154.832031 138.050781 155.414062 C 137.339844 155.996094 136.605469 156.542969 135.84375 157.054688 C 135.078125 157.5625 134.292969 158.035156 133.484375 158.464844 C 132.675781 158.898438 131.847656 159.292969 131 159.640625 C 130.152344 159.992188 129.289062 160.300781 128.410156 160.566406 C 127.53125 160.835938 126.644531 161.058594 125.742188 161.234375 C 124.84375 161.414062 123.9375 161.550781 123.023438 161.640625 C 122.113281 161.730469 121.195312 161.773438 120.277344 161.773438 C 119.363281 161.773438 118.445312 161.730469 117.53125 161.640625 C 116.621094 161.550781 115.714844 161.414062 114.8125 161.234375 C 113.914062 161.058594 113.023438 160.835938 112.148438 160.566406 C 111.269531 160.300781 110.40625 159.992188 109.558594 159.640625 C 108.710938 159.292969 107.882812 158.898438 107.074219 158.464844 C 106.265625 158.035156 105.480469 157.5625 104.714844 157.054688 C 103.953125 156.542969 103.21875 155.996094 102.507812 155.414062 C 101.796875 154.832031 101.121094 154.21875 100.472656 153.570312 C 99.820312 152.921875 99.207031 152.242188 98.625 151.53125 C 98.042969 150.824219 97.496094 150.085938 96.988281 149.324219 C 96.476562 148.5625 96.007812 147.777344 95.574219 146.96875 C 95.140625 146.15625 94.75 145.328125 94.398438 144.480469 C 94.046875 143.632812 93.738281 142.769531 93.472656 141.894531 C 93.207031 141.015625 92.984375 140.125 92.804688 139.226562 C 92.625 138.328125 92.492188 137.421875 92.402344 136.507812 C 92.3125 135.59375 92.265625 134.679688 92.265625 133.761719 C 92.265625 132.84375 92.3125 131.929688 92.402344 131.015625 C 92.492188 130.101562 92.625 129.195312 92.804688 128.296875 C 92.984375 127.398438 93.207031 126.507812 93.472656 125.628906 C 93.738281 124.753906 94.046875 123.890625 94.398438 123.042969 C 94.75 122.195312 95.140625 121.367188 95.574219 120.558594 C 96.007812 119.746094 96.476562 118.960938 96.988281 118.199219 C 97.496094 117.4375 98.042969 116.699219 98.625 115.992188 C 99.207031 115.28125 99.820312 114.601562 100.472656 113.953125 C 101.121094 113.304688 101.796875 112.691406 102.507812 112.109375 C 103.21875 111.527344 103.953125 110.980469 104.714844 110.46875 C 105.480469 109.960938 106.265625 109.488281 107.074219 109.058594 C 107.882812 108.625 108.710938 108.234375 109.558594 107.882812 C 110.40625 107.53125 111.269531 107.222656 112.148438 106.957031 C 113.023438 106.6875 113.914062 106.464844 114.8125 106.289062 C 115.714844 106.109375 116.621094 105.972656 117.53125 105.882812 C 118.445312 105.792969 119.363281 105.75 120.277344 105.75 C 121.195312 105.75 122.113281 105.792969 123.023438 105.882812 C 123.9375 105.972656 124.84375 106.109375 125.742188 106.289062 C 126.644531 106.464844 127.53125 106.6875 128.410156 106.957031 C 129.289062 107.222656 130.152344 107.53125 131 107.882812 C 131.847656 108.234375 132.675781 108.625 133.484375 109.058594 C 134.292969 109.488281 135.078125 109.960938 135.84375 110.46875 C 136.605469 110.980469 137.339844 111.527344 138.050781 112.109375 C 138.757812 112.691406 139.4375 113.304688 140.085938 113.953125 C 140.734375 114.601562 141.351562 115.28125 141.933594 115.992188 C 142.515625 116.699219 143.0625 117.4375 143.570312 118.199219 C 144.082031 118.960938 144.550781 119.746094 144.984375 120.558594 C 145.417969 121.367188 145.808594 122.195312 146.160156 123.042969 C 146.511719 123.890625 146.820312 124.753906 147.085938 125.628906 C 147.351562 126.507812 147.574219 127.398438 147.753906 128.296875 C 147.933594 129.195312 148.066406 130.101562 148.15625 131.015625 C 148.246094 131.929688 148.292969 132.84375 148.292969 133.761719 Z M 148.292969 133.761719 " fill-opacity="1" fill-rule="nonzero"/><path fill="#ffffff" d="M 96.128906 182.425781 L 144.253906 182.425781 L 144.253906 337.242188 L 96.128906 337.242188 Z M 96.128906 182.425781 " fill-opacity="1" fill-rule="nonzero"/><path fill="#ffffff" d="M 174.523438 182.425781 L 220.328125 182.425781 L 220.328125 337.242188 L 174.523438 337.242188 Z M 174.523438 182.425781 " fill-opacity="1" fill-rule="nonzero"/><path fill="#ffffff" d="M 176.503906 264.855469 L 222.304688 264.855469 L 222.304688 337.242188 L 176.503906 337.242188 Z M 176.503906 264.855469 " fill-opacity="1" fill-rule="nonzero"/><path fill="#ffffff" d="M 222.304688 264.855469 C 222.304688 264.855469 221.589844 244.773438 226.886719 234.335938 C 226.886719 234.335938 232.183594 221.476562 248.828125 221.398438 C 248.828125 221.398438 268.351562 217.992188 273.949219 237.363281 C 273.949219 237.363281 276.070312 248.105469 276.070312 252.648438 C 276.070312 257.191406 276.222656 337.246094 276.222656 337.246094 L 324.191406 337.246094 L 324.191406 248.5625 C 324.191406 248.5625 327.675781 198.46875 297.609375 184.746094 C 297.609375 184.746094 248.171875 162.550781 221.339844 203.3125 C 221.339844 203.3125 215.484375 207.34375 214.675781 196.046875 C 213.871094 184.746094 207.011719 213.398438 206.808594 214.007812 C 206.605469 214.613281 214.675781 271.109375 214.675781 271.109375 Z M 222.304688 264.855469 " fill-opacity="1" fill-rule="nonzero"/></svg>