<svg xmlns="http://www.w3.org/2000/svg" xmlns:xlink="http://www.w3.org/1999/xlink" width="500" zoomAndPan="magnify" viewBox="0 0 375 374.999991" height="500" preserveAspectRatio="xMidYMid meet" version="1.0"><path fill="#ffffff" d="M 187.5 0 C 84.09375 0 0 84.09375 0 187.5 C 0 290.90625 84.09375 375 187.5 375 C 290.90625 375 375 290.90625 375 187.5 C 375 84.09375 290.90625 0 187.5 0 Z M 187.5 361.847656 C 91.230469 361.847656 13.152344 283.769531 13.152344 187.5 C 13.152344 91.230469 91.230469 13.152344 187.5 13.152344 C 283.769531 13.152344 361.847656 91.230469 361.847656 187.5 C 361.847656 283.769531 283.769531 361.847656 187.5 361.847656 Z M 187.5 361.847656 " fill-opacity="1" fill-rule="nonzero"/><path fill="#ffffff" d="M 281.902344 127.097656 L 218.421875 187.5 L 281.902344 247.902344 C 283.605469 245.578125 284.691406 242.996094 285.167969 240.160156 L 285.167969 134.839844 C 284.691406 132.003906 283.605469 129.421875 281.902344 127.097656 Z M 281.902344 127.097656 " fill-opacity="1" fill-rule="nonzero"/><path fill="#ffffff" d="M 187.5 216.929688 L 161.378906 192.070312 L 97.949219 252.425781 C 99.410156 253.386719 100.976562 254.117188 102.652344 254.617188 C 104.328125 255.121094 106.039062 255.367188 107.789062 255.363281 L 267.210938 255.363281 C 268.960938 255.367188 270.671875 255.121094 272.347656 254.617188 C 274.023438 254.117188 275.589844 253.386719 277.050781 252.425781 L 213.621094 192.070312 Z M 187.5 216.929688 " fill-opacity="1" fill-rule="nonzero"/><path fill="#ffffff" d="M 93.097656 127.097656 C 91.394531 129.421875 90.308594 132.003906 89.832031 134.839844 L 89.832031 240.160156 C 90.308594 242.996094 91.394531 245.578125 93.097656 247.902344 L 156.578125 187.5 Z M 93.097656 127.097656 " fill-opacity="1" fill-rule="nonzero"/><path fill="#ffffff" d="M 161.378906 182.929688 L 187.5 207.835938 L 277.050781 122.574219 C 275.589844 121.613281 274.023438 120.882812 272.347656 120.382812 C 270.671875 119.878906 268.960938 119.632812 267.210938 119.636719 L 107.789062 119.636719 C 106.039062 119.632812 104.328125 119.878906 102.652344 120.382812 C 100.976562 120.882812 99.410156 121.613281 97.949219 122.574219 Z M 161.378906 182.929688 " fill-opacity="1" fill-rule="nonzero"/></svg>